<svg xmlns="http://www.w3.org/2000/svg" width="120" height="120" viewBox="0 0 120 120" fill="none">
  <circle cx="60" cy="60" r="60" fill="#5A65EA"/>
  <path d="M84.9908 37.6062C80.3302 35.4544 75.3467 33.8905 70.1367 33C69.4968 34.1416 68.7493 35.677 68.2339 36.8985C62.6955 36.0765 57.208 36.0765 51.7715 36.8985C51.2562 35.677 50.4917 34.1416 49.8461 33C44.6304 33.8905 39.6413 35.4601 34.9806 37.6176C25.5799 51.6359 23.0316 65.306 24.3057 78.782C30.5408 83.3767 36.5832 86.1679 42.5237 87.9943C43.9905 86.0023 45.2986 83.8847 46.4255 81.653C44.2793 80.8482 42.2236 79.8551 40.2812 78.7021C40.7965 78.3254 41.3006 77.9315 41.7875 77.5262C53.6346 82.9943 66.5067 82.9943 78.2122 77.5262C78.7049 77.9315 79.2089 78.3254 79.7185 78.7021C77.7704 79.8607 75.7091 80.8539 73.5629 81.6588C74.6898 83.8847 75.9923 86.0081 77.4647 88C83.4109 86.1735 89.459 83.3825 95.694 78.782C97.1891 63.1599 93.14 49.6153 84.9908 37.6062ZM48.0395 70.4944C44.4832 70.4944 41.5667 67.2181 41.5667 63.2283C41.5667 59.2386 44.4209 55.9567 48.0395 55.9567C51.6583 55.9567 54.5747 59.2329 54.5124 63.2283C54.518 67.2181 51.6583 70.4944 48.0395 70.4944ZM71.9602 70.4944C68.4039 70.4944 65.4874 67.2181 65.4874 63.2283C65.4874 59.2386 68.3415 55.9567 71.9602 55.9567C75.5789 55.9567 78.4954 59.2329 78.4331 63.2283C78.4331 67.2181 75.5789 70.4944 71.9602 70.4944Z" fill="#F2F3F5"/>
</svg>