<svg xmlns="http://www.w3.org/2000/svg" width="16" height="17" viewBox="0 0 16 17" fill="none">
  <path d="M8 0.5C3.5888 0.5 0 4.08799 0 8.50002V14.9C0 15.7832 0.716 16.5 1.6 16.5H3.2C4.0832 16.5 4.8 15.7832 4.8 14.9V12.5C4.8 11.6168 4.0832 10.9 3.2 10.9H1.6V8.50002C1.6 4.97039 4.4712 2.1 8 2.1C11.5288 2.1 14.4 4.97039 14.4 8.50002V10.9H12.8C11.9168 10.9 11.2 11.6168 11.2 12.5V14.9C11.2 15.7832 11.9168 16.5 12.8 16.5H14.4C15.2832 16.5 16 15.7832 16 14.9V8.50002C16 4.08799 12.4112 0.5 8 0.5Z" fill="#B9BBBE"/>
</svg>