<svg xmlns="http://www.w3.org/2000/svg" width="24" height="24" viewBox="0 0 24 24" fill="none">
  <path d="M6.02688 21.0497C5.71683 21.0497 5.48205 20.7686 5.53624 20.4623L6.13994 17.0497H2.7465C2.43693 17.0497 2.20228 16.7695 2.25564 16.4635L2.43005 15.4635C2.47178 15.2243 2.67884 15.0497 2.92091 15.0497H6.48876L7.54519 9.04968H4.15176C3.84218 9.04968 3.60753 8.76945 3.66089 8.46349L3.8353 7.46349C3.87703 7.22424 4.08409 7.04968 4.32617 7.04968H7.89401L8.52863 3.4623C8.57086 3.22359 8.77766 3.04968 9.01927 3.04968H10.0003C10.3103 3.04968 10.5451 3.33075 10.4909 3.63706L9.88728 7.04968H15.8671L16.5017 3.4623C16.5439 3.22359 16.7507 3.04968 16.9924 3.04968H17.9734C18.2834 3.04968 18.5182 3.33075 18.464 3.63706L17.8603 7.04968H21.2538C21.5633 7.04968 21.798 7.32991 21.7446 7.63587L21.5702 8.63587C21.5286 8.87512 21.3214 9.04968 21.0794 9.04968H17.5115L16.4551 15.0497H19.8485C20.1581 15.0497 20.3928 15.3299 20.3394 15.6359L20.165 16.6359C20.1233 16.8751 19.9162 17.0497 19.6741 17.0497H16.1063L15.4716 20.6371C15.4295 20.8758 15.2227 21.0497 14.981 21.0497H14C13.6899 21.0497 13.4551 20.7686 13.5093 20.4623L14.113 17.0497H8.13321L7.49859 20.6371C7.45636 20.8758 7.24955 21.0497 7.00794 21.0497H6.02688ZM9.5389 9.04968L8.48247 15.0497H14.4622L15.5187 9.04968H9.5389Z" fill="white" fill-opacity="0.6"/>
</svg>