<svg xmlns="http://www.w3.org/2000/svg" width="68" height="68" viewBox="0 0 68 68" fill="none">
  <circle cx="34" cy="34" r="34" fill="#424249"/>
  <path d="M23.7811 50C23.2247 50 22.8034 49.5003 22.9006 48.9557L23.984 42.8889H17.8945C17.3389 42.8889 16.9179 42.3908 17.0136 41.8468L17.3266 40.069C17.4015 39.6437 17.7731 39.3333 18.2074 39.3333H24.6099L26.5057 28.6667H20.4162C19.8607 28.6667 19.4396 28.1685 19.5353 27.6246L19.8483 25.8468C19.9232 25.4214 20.2948 25.1111 20.7292 25.1111H27.1316L28.2704 18.7335C28.3462 18.3092 28.7173 18 29.1509 18H30.9114C31.4677 18 31.889 18.4997 31.7918 19.0442L30.7085 25.1111H41.4392L42.578 18.7335C42.6537 18.3092 43.0248 18 43.4585 18H45.2189C45.7753 18 46.1966 18.4997 46.0993 19.0442L45.0161 25.1111H51.1055C51.661 25.1111 52.0822 25.6093 51.9863 26.1532L51.6734 27.931C51.5986 28.3563 51.227 28.6667 50.7926 28.6667H44.3901L42.4944 39.3333H48.5838C49.1393 39.3333 49.5605 39.8315 49.4646 40.3755L49.1517 42.1532C49.0769 42.5785 48.7053 42.8889 48.2709 42.8889H41.8684L40.7295 49.2665C40.6539 49.6908 40.2828 50 39.8491 50H38.0887C37.5323 50 37.1109 49.5003 37.2082 48.9557L38.2915 42.8889H27.5608L26.422 49.2665C26.3463 49.6908 25.9751 50 25.5416 50H23.7811ZM30.0833 28.6667L28.1876 39.3333H38.9182L40.8139 28.6667H30.0833Z" fill="white"/>
</svg>