<svg xmlns="http://www.w3.org/2000/svg" width="24" height="24" viewBox="0 0 24 24" fill="none">
  <path d="M12 24C18.6274 24 24 18.6274 24 12C24 5.37258 18.6274 0 12 0C5.37258 0 0 5.37258 0 12C0 18.6274 5.37258 24 12 24Z" fill="white" fill-opacity="0.8"/>
  <path d="M11.9998 14.0001C9.5845 14.0001 7.98184 13.7188 5.99984 13.3335C5.54717 13.2461 4.6665 13.3335 4.6665 14.6668C4.6665 17.3335 7.72984 20.6668 11.9998 20.6668C16.2692 20.6668 19.3332 17.3335 19.3332 14.6668C19.3332 13.3335 18.4525 13.2455 17.9998 13.3335C16.0178 13.7188 14.4152 14.0001 11.9998 14.0001Z" fill="#40444B"/>
  <path d="M6 14.6667C6 14.6667 8 15.3334 12 15.3334C16 15.3334 18 14.6667 18 14.6667C18 14.6667 16.6667 17.3334 12 17.3334C7.33333 17.3334 6 14.6667 6 14.6667Z" fill="white"/>
  <path d="M7.99992 11.3332C8.92039 11.3332 9.66659 10.2885 9.66659 8.99984C9.66659 7.71117 8.92039 6.6665 7.99992 6.6665C7.07944 6.6665 6.33325 7.71117 6.33325 8.99984C6.33325 10.2885 7.07944 11.3332 7.99992 11.3332Z" fill="#40444B"/>
  <path d="M16.0002 11.3332C16.9206 11.3332 17.6668 10.2885 17.6668 8.99984C17.6668 7.71117 16.9206 6.6665 16.0002 6.6665C15.0797 6.6665 14.3335 7.71117 14.3335 8.99984C14.3335 10.2885 15.0797 11.3332 16.0002 11.3332Z" fill="#40444B"/>
</svg>