<svg xmlns="http://www.w3.org/2000/svg" width="28" height="24" viewBox="0 0 28 24" fill="none">
  <path d="M2.33333 0C1.04467 0 0 1.07452 0 2.4V21.6C0 22.9255 1.04467 24 2.33333 24H25.6667C26.9554 24 28 22.9255 28 21.6V2.4C28 1.07452 26.9554 0 25.6667 0H2.33333ZM11.3919 11.3376V16.176C10.3839 16.8528 9.19386 17.2272 7.86386 17.2272C4.79786 17.2272 3.10386 15.1536 3.10386 12.0864C3.10386 9.0048 4.93786 6.9168 7.91986 6.9168C9.10986 6.9168 10.1039 7.2048 10.8739 7.6512L10.5519 9.7968C9.82386 9.3216 8.96986 8.9472 7.97586 8.9472C6.30986 8.9472 5.49786 10.2144 5.49786 12.072C5.49786 13.944 6.33786 15.2544 8.00386 15.2544C8.53586 15.2544 8.91386 15.1392 9.30586 14.9376V13.1664H7.49986V11.3376H11.3919ZM13.4728 7.104H15.8668V17.04H13.4728V7.104ZM23.8845 7.104V9.1632H20.4825V11.1936H23.1705V13.2528H20.4825V17.04H18.1025V7.104H23.8845Z" fill="white" fill-opacity="0.8"/>
</svg>