<svg xmlns="http://www.w3.org/2000/svg" width="24" height="24" viewBox="0 0 24 24" fill="none">
  <path fill-rule="evenodd" clip-rule="evenodd" d="M21.6 7.17518H17.8632C18.4044 6.89277 18.9168 6.54786 19.3452 6.12003C20.748 4.71515 20.748 2.42818 19.3452 1.0197C17.9832 -0.339501 15.6168 -0.340703 14.2548 1.02091C12.2904 2.98821 12.0264 6.69087 12.0024 7.10668C12.0011 7.11933 12.0039 7.13095 12.0067 7.14265L12.007 7.14378C12.0095 7.15396 12.012 7.1642 12.012 7.17518H11.988C11.988 7.16431 11.9904 7.15416 11.9929 7.14399C11.9959 7.13167 11.9989 7.1193 11.9976 7.10548C11.9748 6.68967 11.7096 2.98701 9.7452 1.0197C8.3832 -0.339501 6.0144 -0.339501 4.6548 1.02211C3.2508 2.42698 3.2508 4.71395 4.6548 6.12003C5.0832 6.54786 5.5956 6.89277 6.1368 7.17518H2.4C1.0764 7.17518 0 8.25317 0 9.57873V11.9823H24V9.57873C24 8.25317 22.9248 7.17518 21.6 7.17518ZM1.2 21.5965V14.3858H10.8V24H3.6C2.2764 24 1.2 22.922 1.2 21.5965ZM13.2 14.3858V24H20.4C21.7248 24 22.8 22.922 22.8 21.5965V14.3858H13.2ZM6.35164 2.72021C5.88364 3.1889 5.88364 3.95083 6.35164 4.42072C7.05484 5.12496 8.33404 5.54077 9.39004 5.7607C9.16924 4.70073 8.75644 3.42926 8.04844 2.72021C7.82284 2.49308 7.52164 2.36929 7.20004 2.36929C6.87844 2.36929 6.57724 2.49308 6.35164 2.72021ZM15.9516 2.72141C15.2424 3.43046 14.8308 4.70193 14.6088 5.7631C15.6684 5.54438 16.9392 5.13097 17.6484 4.42072C18.1164 3.95083 18.1152 3.1889 17.6472 2.71901C17.4228 2.49308 17.1216 2.36929 16.8 2.36929C16.4784 2.36929 16.1772 2.49308 15.9516 2.72141Z" fill="white" fill-opacity="0.8"/>
</svg>