<svg xmlns="http://www.w3.org/2000/svg" width="24" height="24" viewBox="0 0 24 24" fill="none">
  <path d="M11.7143 2C6.35929 2 2 6.35929 2 11.7143C2 17.0693 6.35929 21.4286 11.7143 21.4286C17.0693 21.4286 21.4286 17.0693 21.4286 11.7143C21.4286 6.35929 17.0693 2 11.7143 2ZM14.155 14.155L5.03571 18.3929L9.27357 9.27357L18.3929 5.03571L14.155 14.155Z" fill="#D8D8DB"/>
  <path d="M12.9286 11.7143C12.9286 12.3849 12.3849 12.9286 11.7143 12.9286C11.0437 12.9286 10.5 12.3849 10.5 11.7143C10.5 11.0437 11.0437 10.5 11.7143 10.5C12.3849 10.5 12.9286 11.0437 12.9286 11.7143Z" fill="#D8D8DB"/>
</svg>