<svg xmlns="http://www.w3.org/2000/svg" width="26" height="20" viewBox="0 0 26 20" fill="none">
  <path d="M22.0151 1.68364C20.3338 0.901953 18.5361 0.333856 16.6567 0.010376C16.4259 0.425065 16.1562 0.982832 15.9703 1.42653C13.9724 1.12796 11.9928 1.12796 10.0316 1.42653C9.84576 0.982832 9.56997 0.425065 9.33708 0.010376C7.4556 0.333856 5.65582 0.90404 3.97454 1.68778C0.583367 6.78006 -0.335923 11.7459 0.123723 16.6412C2.37292 18.3102 4.55267 19.3242 6.69563 19.9876C7.22474 19.264 7.69664 18.4948 8.10316 17.6841C7.32892 17.3917 6.58736 17.031 5.88668 16.6121C6.07257 16.4753 6.2544 16.3322 6.43006 16.185C10.7037 18.1713 15.3472 18.1713 19.5698 16.185C19.7475 16.3322 19.9293 16.4753 20.1132 16.6121C19.4105 17.033 18.6669 17.3938 17.8926 17.6862C18.2991 18.4948 18.769 19.2661 19.3002 19.9897C21.4452 19.3262 23.6269 18.3123 25.8762 16.6412C26.4155 10.9663 24.9548 6.04607 22.0151 1.68364ZM8.68539 13.6306C7.40248 13.6306 6.35038 12.4404 6.35038 10.9911C6.35038 9.54183 7.38001 8.34963 8.68539 8.34963C9.99081 8.34963 11.0429 9.53974 11.0204 10.9911C11.0224 12.4404 9.99081 13.6306 8.68539 13.6306ZM17.3145 13.6306C16.0316 13.6306 14.9795 12.4404 14.9795 10.9911C14.9795 9.54183 16.0091 8.34963 17.3145 8.34963C18.6199 8.34963 19.672 9.53974 19.6495 10.9911C19.6495 12.4404 18.6199 13.6306 17.3145 13.6306Z" fill="#F2F3F5"/>
</svg>