<svg xmlns="http://www.w3.org/2000/svg" width="25" height="24" viewBox="0 0 25 24" fill="none">
  <path d="M12.5 2.19336C6.986 2.19336 2.5 6.68036 2.5 12.1934C2.5 17.7084 6.986 22.1934 12.5 22.1934C18.014 22.1934 22.5 17.7084 22.5 12.1934C22.5 6.68036 18.014 2.19336 12.5 2.19336ZM12.5 18.4434C11.81 18.4434 11.25 17.8844 11.25 17.1934C11.25 16.5034 11.81 15.9434 12.5 15.9434C13.19 15.9434 13.75 16.5034 13.75 17.1934C13.75 17.8844 13.19 18.4434 12.5 18.4434ZM13.5 14.0684V15.1934H11.5V12.1934H12.5C13.604 12.1934 14.5 11.2964 14.5 10.1934C14.5 9.08936 13.604 8.19336 12.5 8.19336C11.396 8.19336 10.5 9.08936 10.5 10.1934H8.5C8.5 7.98836 10.295 6.19336 12.5 6.19336C14.705 6.19336 16.5 7.98836 16.5 10.1934C16.5 12.0544 15.223 13.6224 13.5 14.0684Z" fill="white" fill-opacity="0.6"/>
</svg>