<svg xmlns="http://www.w3.org/2000/svg" width="11" height="17" viewBox="0 0 11 17" fill="none">
  <path fill-rule="evenodd" clip-rule="evenodd" d="M7.84929 7.7C7.84929 9.028 6.80429 10.1 5.5 10.1C4.19571 10.1 3.14286 9.028 3.14286 7.7V2.9C3.14286 1.572 4.19571 0.5 5.5 0.5C6.80429 0.5 7.85714 1.572 7.85714 2.9L7.84929 7.7ZM5.5 11.78C7.66857 11.78 9.66428 10.1 9.66428 7.7H11C11 10.436 8.86286 12.692 6.28571 13.076V16.5H4.71429V13.076C2.13714 12.684 0 10.428 0 7.7H1.33571C1.33571 10.1 3.33143 11.78 5.5 11.78Z" fill="#B9BBBE"/>
</svg>