<svg xmlns="http://www.w3.org/2000/svg" width="20" height="16" viewBox="0 0 20 16" fill="none">
  <path fill-rule="evenodd" clip-rule="evenodd" d="M11.9999 3.99999C11.9999 6.20501 10.2059 8.00001 7.99996 8.00001C5.79497 8.00001 3.99998 6.20501 3.99998 3.99999C3.99998 1.795 5.79397 0 7.99996 0C10.2059 0 11.9999 1.795 11.9999 3.99999ZM0 15C0 11.467 3.28998 9.00001 7.99996 9.00001C12.7109 9.00001 15.9999 11.467 15.9999 15V16H0V15Z" fill="white" fill-opacity="0.8"/>
  <path d="M18 15.9999H20V14.9999C20 12.4372 18.2696 10.4354 15.5212 9.52912C17.062 10.9066 18 12.7998 18 14.9999V15.9999Z" fill="white" fill-opacity="0.8"/>
  <path d="M12.8833 7.90151C14.6656 7.49821 16 5.90151 16 3.99979C16 1.96298 14.4692 0.275997 12.497 0.0305175C13.4321 1.08893 14 2.47905 14 3.99979C14 5.44269 13.4888 6.76801 12.6377 7.80401C12.7202 7.83561 12.8021 7.86811 12.8833 7.90151Z" fill="white" fill-opacity="0.8"/>
</svg>