<svg xmlns="http://www.w3.org/2000/svg" width="12" height="12" viewBox="0 0 12 12" fill="none">
  <path d="M12 11.1396L8.71609 7.85548C9.3792 7.00538 9.74273 5.96712 9.74273 4.87161C9.74273 3.57028 9.2355 2.3469 8.31542 1.42738C7.39595 0.506648 6.17263 0 4.87137 0C3.5701 0 2.34678 0.506648 1.42731 1.42738C0.507231 2.3469 0 3.57028 0 4.87161C0 6.17294 0.507231 7.39633 1.42731 8.31584C2.34678 9.23658 3.5701 9.74323 4.87137 9.74323C5.96681 9.74323 7.00502 9.38029 7.85508 8.71653L11.139 12L12 11.1396ZM4.87137 8.52532C3.89527 8.52532 2.97823 8.14534 2.28832 7.45539C1.59781 6.76545 1.21784 5.84776 1.21784 4.87161C1.21784 3.89607 1.59781 2.97838 2.28832 2.28844C2.97823 1.59789 3.89527 1.2179 4.87137 1.2179C5.84747 1.2179 6.7645 1.59789 7.45441 2.28844C8.14492 2.97838 8.52489 3.89607 8.52489 4.87161C8.52489 5.84776 8.14492 6.76545 7.45441 7.45539C6.7645 8.14534 5.84747 8.52532 4.87137 8.52532Z" fill="white" fill-opacity="0.8"/>
</svg>