<svg xmlns="http://www.w3.org/2000/svg" width="24" height="24" viewBox="0 0 24 24" fill="none">
  <path fill-rule="evenodd" clip-rule="evenodd" d="M12 6.50496V0.0733167H2.4C1.76348 0.0733167 1.15303 0.326159 0.702944 0.776222C0.252856 1.22628 0 1.8367 0 2.47318L0 21.6001C0 22.2366 0.252856 22.847 0.702944 23.2971C1.15303 23.7472 1.76348 24 2.4 24H21.6C22.2365 24 22.847 23.7472 23.2971 23.2971C23.7471 22.847 24 22.2366 24 21.6001V12.0007H17.496C16.0413 11.9912 14.6488 11.4092 13.6202 10.3806C12.5915 9.35198 12.0094 7.9596 12 6.50496ZM12 18.6603C10.9402 18.6603 9.9238 18.2393 9.1744 17.49C8.42501 16.7406 8.004 15.7243 8.004 14.6645H9.6C9.6 15.301 9.85286 15.9114 10.3029 16.3615C10.753 16.8115 11.3635 17.0644 12 17.0644C12.6365 17.0644 13.247 16.8115 13.6971 16.3615C14.1471 15.9114 14.4 15.301 14.4 14.6645H15.996C15.996 15.7243 15.575 16.7406 14.8256 17.49C14.0762 18.2393 13.0598 18.6603 12 18.6603ZM14.4 6.48096V0.793277C14.3973 0.636372 14.442 0.482307 14.5283 0.351215C14.6146 0.220123 14.7384 0.118102 14.8836 0.0584817C15.0287 -0.00113831 15.1885 -0.0155835 15.342 0.0170337C15.4955 0.0496509 15.6356 0.127813 15.744 0.241307L23.772 8.25687C23.8803 8.36826 23.9534 8.50903 23.9823 8.66167C24.0111 8.8143 23.9945 8.97206 23.9344 9.1153C23.8743 9.25853 23.7733 9.38093 23.6442 9.46726C23.515 9.55358 23.3633 9.60002 23.208 9.60079H17.52C17.1098 9.60238 16.7034 9.52277 16.3242 9.36654C15.9449 9.21032 15.6003 8.98057 15.3103 8.69055C15.0203 8.40053 14.7905 8.05598 14.6343 7.67675C14.478 7.29751 14.3984 6.89111 14.4 6.48096ZM5.7931 15.7235C5.7931 16.6376 5.05206 17.3786 4.13793 17.3786C3.2238 17.3786 2.48276 16.6376 2.48276 15.7235C2.48276 14.8094 3.2238 14.0684 4.13793 14.0684C5.05206 14.0684 5.7931 14.8094 5.7931 15.7235ZM19.8621 17.3786C20.7762 17.3786 21.5172 16.6376 21.5172 15.7235C21.5172 14.8094 20.7762 14.0684 19.8621 14.0684C18.9479 14.0684 18.2069 14.8094 18.2069 15.7235C18.2069 16.6376 18.9479 17.3786 19.8621 17.3786Z" fill="white" fill-opacity="0.8"/>
</svg>