<svg xmlns="http://www.w3.org/2000/svg" width="18" height="20" viewBox="0 0 18 20" fill="none">
  <path d="M16.0001 0H8C6.9 0 6 0.900003 6 2.00002V7.00003C6 8.10003 5.1 9.00003 4 9.00003C1.78999 9.00003 0 10.79 0 13V18C0 19.1 0.9 20 1.99999 20H10C11.1 20 12 19.1 12 18V13C12 11.9 12.9 11 13.9999 11C16.21 11 18 9.21003 18 7.00003V2.00002C18 0.900003 17.1 0 16.0001 0ZM9 18H3C2.44999 18 1.99999 17.55 1.99999 17C1.99999 16.4501 2.44999 16.0001 3 16.0001H9C9.55001 16.0001 10 16.4501 10 17C10 17.55 9.55001 18 9 18ZM9 14H3C2.44999 14 1.99999 13.55 1.99999 13C1.99999 12.45 2.44999 12 3 12H9C9.55001 12 10 12.45 10 13C10 13.55 9.55001 14 9 14ZM15 8.00004H9C8.44999 8.00004 8 7.55003 8 7.00003C8 6.45002 8.44999 6.00002 9 6.00002H15C15.55 6.00002 16.0001 6.45002 16.0001 7.00003C16.0001 7.55003 15.55 8.00004 15 8.00004ZM15 4.00002H9C8.44999 4.00002 8 3.55002 8 3.00001C8 2.45002 8.44999 2.00002 9 2.00002H15C15.55 2.00002 16.0001 2.45002 16.0001 3.00001C16.0001 3.55002 15.55 4.00002 15 4.00002Z" fill="white" fill-opacity="0.8"/>
</svg>